<?xml version="1.0" standalone="no"?>
<!DOCTYPE svg PUBLIC "-//W3C//DTD SVG 20010904//EN"
 "http://www.w3.org/TR/2001/REC-SVG-20010904/DTD/svg10.dtd">
<svg version="1.0" xmlns="http://www.w3.org/2000/svg"
 width="400.000000pt" height="400.000000pt" viewBox="0 0 400.000000 400.000000"
 preserveAspectRatio="xMidYMid meet">
<metadata>
Created by potrace 1.14, written by Peter Selinger 2001-2017
</metadata>
<g transform="translate(0.000000,400.000000) scale(0.100000,-0.100000)"
fill="#000000" stroke="none">
<path d="M1905 3608 c-44 -5 -94 -10 -111 -12 -55 -6 -142 -45 -202 -90 -135
-103 -231 -217 -232 -275 0 -14 -11 -40 -71 -168 -16 -35 -29 -68 -29 -74 0
-6 -13 -39 -29 -74 -65 -139 -70 -172 -71 -432 -1 -144 3 -252 9 -273 10 -32
8 -306 -3 -485 -3 -40 -1 -51 4 -35 4 14 9 84 9 155 1 72 8 182 16 245 8 63
19 196 25 294 8 156 13 184 32 215 16 26 22 55 24 106 3 101 54 315 75 315 5
0 9 4 9 9 0 29 105 151 129 151 6 0 11 4 11 10 0 27 170 64 185 40 3 -4 40 -8
82 -8 83 -1 101 -3 121 -15 7 -5 21 -5 32 -2 11 4 20 2 20 -2 0 -5 21 -17 46
-28 25 -10 50 -27 55 -37 6 -10 14 -16 20 -13 5 4 9 1 9 -5 0 -8 6 -8 20 0 11
6 20 8 20 4 0 -3 6 -1 14 5 7 6 40 13 72 16 32 3 77 10 99 16 102 27 227 33
268 12 15 -7 31 -12 36 -9 11 7 81 -60 118 -114 56 -82 64 -113 63 -245 -1
-133 3 -172 19 -188 6 -6 11 -19 11 -29 0 -10 4 -18 8 -18 9 0 8 -50 -2 -255
-4 -71 -3 -159 2 -195 l8 -65 8 60 c4 33 14 74 22 92 10 22 14 67 13 150 0 74
5 144 15 188 23 104 20 173 -10 258 -30 80 -47 148 -64 252 -6 39 -15 81 -20
95 -5 14 -11 47 -14 74 -3 27 -12 56 -20 65 -7 9 -17 30 -20 47 -7 31 -46 79
-82 101 -18 11 -18 12 -1 12 28 1 9 21 -19 21 -17 0 -23 4 -18 12 5 7 0 9 -14
6 -12 -4 -26 0 -33 9 -17 20 -132 72 -199 89 -30 8 -71 19 -90 24 -43 12 -266
10 -375 -2z"/>
<path d="M1519 2429 c-8 -5 -23 -6 -34 -3 -16 4 -17 3 -5 -5 12 -8 11 -11 -5
-16 -43 -15 -46 -15 -38 -2 4 6 -4 5 -17 -4 -14 -10 -24 -25 -23 -35 1 -11 0
-13 -3 -6 -5 10 -9 10 -20 1 -8 -6 -11 -15 -8 -20 3 -5 0 -8 -7 -7 -7 2 -15
-5 -17 -14 -5 -23 3 -23 82 7 39 15 86 25 114 24 l47 -1 -30 -14 -30 -15 38 6
c52 8 107 -3 100 -21 -3 -9 -21 -14 -50 -14 -47 0 -150 -44 -190 -82 -25 -24
-23 -31 10 -34 35 -2 70 14 63 31 -3 8 3 19 14 25 15 8 22 6 33 -11 12 -16 27
-21 76 -22 48 -2 61 1 61 13 1 37 16 42 56 21 l39 -21 -38 0 c-20 0 -37 -4
-37 -8 0 -5 22 -8 49 -9 56 0 58 11 11 46 -17 12 -30 29 -30 39 0 13 -2 14 -9
3 -6 -10 -10 -10 -16 -1 -12 20 4 25 88 28 86 4 110 13 88 35 -12 10 -13 9 -7
-7 6 -16 4 -17 -10 -5 -10 8 -12 15 -5 17 16 5 14 20 -6 41 -24 25 -123 50
-154 39 -13 -5 -34 -5 -49 1 -17 5 -33 5 -45 -1 -12 -7 -16 -7 -11 0 7 12 -55
14 -75 1z"/>
<path d="M2446 2421 c-3 -5 -41 -8 -83 -6 -43 2 -94 -2 -113 -8 -39 -13 -98
-69 -79 -76 8 -2 7 -6 -2 -12 -9 -5 6 -8 38 -6 29 2 55 6 59 10 4 3 17 -2 31
-13 19 -15 30 -17 56 -9 17 5 48 9 67 10 31 1 32 2 10 8 -40 11 -11 18 80 19
55 0 78 -3 65 -8 -11 -5 -14 -9 -7 -9 7 -1 23 4 34 10 11 6 18 7 15 2 -4 -5 9
-16 28 -23 19 -8 35 -19 35 -24 0 -6 5 -4 10 5 15 26 -15 74 -63 100 -28 15
-60 22 -99 23 -32 1 -58 4 -58 9 0 10 -18 9 -24 -2z m74 -21 c0 -5 -7 -7 -15
-4 -8 4 -15 8 -15 10 0 2 7 4 15 4 8 0 15 -4 15 -10z"/>
<path d="M1467 2299 c-22 -11 -37 -22 -35 -24 4 -5 88 35 88 41 0 8 -16 3 -53
-17z"/>
<path d="M2314 2248 c-50 -24 -91 -55 -82 -63 6 -7 43 11 66 33 22 20 40 14
47 -17 6 -28 8 -28 71 -30 45 -1 64 2 64 11 0 24 16 39 34 32 13 -5 16 -13 12
-30 -4 -13 -3 -24 1 -25 5 0 27 -3 51 -5 48 -6 57 11 20 36 -115 75 -209 94
-284 58z m113 -14 c-3 -3 -12 -4 -19 -1 -8 3 -5 6 6 6 11 1 17 -2 13 -5z"/>
<path d="M1510 2180 c0 -13 11 -13 30 0 12 8 11 10 -7 10 -13 0 -23 -4 -23
-10z"/>
<path d="M2266 2181 c-3 -4 14 -8 37 -8 31 0 37 2 22 8 -27 10 -53 11 -59 0z"/>
<path d="M2813 1910 c0 -25 2 -35 4 -22 2 12 2 32 0 45 -2 12 -4 2 -4 -23z"/>
<path d="M2799 1694 c0 -87 -3 -172 -5 -189 -4 -20 -2 -27 5 -20 11 11 18 352
7 362 -3 3 -6 -65 -7 -153z"/>
<path d="M1826 1743 c-3 -3 6 -14 19 -25 14 -11 25 -26 25 -34 0 -12 -5 -12
-36 1 -48 20 -52 19 -20 -6 14 -11 26 -24 26 -29 0 -9 -66 -50 -81 -50 -15 0
-39 -26 -32 -34 4 -3 -1 -6 -10 -6 -9 0 -17 6 -17 13 -1 6 -10 1 -22 -13 -15
-17 -19 -19 -15 -7 6 15 3 17 -15 11 -12 -4 -28 -13 -36 -20 -7 -8 -20 -14
-28 -14 -8 0 -22 -13 -33 -30 -10 -16 -20 -28 -23 -25 -8 8 -19 -55 -12 -66 3
-5 9 -7 14 -4 5 3 12 1 15 -5 5 -8 11 -7 21 1 12 10 26 8 67 -9 30 -12 86 -23
132 -27 147 -10 220 -16 230 -19 11 -4 295 10 383 17 29 3 55 0 58 -5 4 -6 9
-6 14 2 5 8 10 3 14 -14 12 -49 36 -19 36 45 0 27 -46 86 -63 81 -5 -2 -16 7
-24 18 -8 12 -20 19 -26 17 -7 -2 -24 4 -39 15 -16 11 -33 16 -39 13 -5 -4
-19 1 -29 10 -11 10 -26 15 -34 12 -9 -4 -23 4 -34 18 -11 13 -23 21 -27 17
-5 -4 -6 1 -2 10 3 9 0 19 -9 22 -21 8 -17 26 6 26 11 0 20 5 20 10 0 6 -15
10 -34 10 -46 0 -55 17 -15 28 18 4 34 13 37 20 6 18 -11 15 -75 -14 -110 -49
-115 -50 -166 -40 -38 7 -46 13 -42 26 3 10 0 22 -8 28 -18 16 -64 32 -71 25z
m-54 -284 c4 0 15 -2 23 -5 8 -4 28 -1 43 5 34 14 254 11 265 -3 5 -8 9 -8 15
-1 12 18 55 15 69 -4 12 -17 53 -28 126 -34 15 -1 27 -5 27 -9 0 -5 7 -8 15
-8 8 0 15 -4 15 -9 0 -14 -47 -22 -84 -15 -44 8 -285 11 -289 3 -1 -3 -38 0
-82 8 -44 8 -120 12 -168 10 -69 -3 -90 0 -100 12 -10 12 -9 14 6 8 23 -9 77
18 77 38 0 8 5 15 10 15 6 0 10 8 11 18 1 12 3 10 7 -6 4 -13 10 -23 14 -23z"/>
<path d="M1161 1644 c0 -11 3 -14 6 -6 3 7 2 16 -1 19 -3 4 -6 -2 -5 -13z"/>
<path d="M1161 1558 c-1 -21 4 -38 9 -38 12 0 12 27 0 55 -7 16 -9 13 -9 -17z"/>
<path d="M1171 1467 c-1 -59 26 -194 45 -224 8 -13 24 -23 37 -22 l22 0 -22
11 c-13 6 -23 20 -23 30 0 11 -4 16 -10 13 -5 -3 -11 2 -11 12 -3 26 -6 47 -8
53 -4 9 -12 54 -20 115 l-8 60 -2 -48z"/>
<path d="M2790 1445 c0 -14 -4 -25 -10 -25 -5 0 -9 -12 -10 -27 -1 -84 0 -82
-32 -78 -19 3 -35 -2 -48 -15 -10 -10 -20 -16 -23 -14 -2 2 -10 -3 -18 -12
-12 -15 -11 -16 11 -10 19 6 21 5 10 -3 -22 -15 -47 -13 -54 4 -3 9 0 15 9 15
8 0 15 4 15 8 0 5 -7 9 -15 9 -8 0 -15 -4 -15 -9 0 -4 -4 -8 -10 -8 -5 0 -10
6 -10 14 0 8 -7 17 -16 20 -11 4 -10 -2 6 -24 21 -30 21 -30 1 -30 -14 0 -19
-5 -15 -15 4 -8 10 -12 15 -9 5 3 9 1 9 -4 0 -6 -7 -13 -16 -16 -8 -3 -12 -2
-9 4 3 6 1 10 -4 10 -12 0 -15 -20 -12 -59 2 -18 -2 -22 -14 -17 -9 3 -13 2
-10 -3 3 -5 -5 -21 -18 -35 l-24 -25 -13 34 c-14 36 -50 50 -50 20 0 -8 5 -15
11 -15 5 0 7 5 4 10 -3 6 -2 10 3 10 11 0 25 -30 17 -38 -3 -3 -5 -1 -5 5 0 5
-13 8 -30 5 -16 -2 -27 -8 -24 -13 3 -5 -1 -6 -9 -3 -8 3 -17 -2 -21 -11 -4
-11 -13 -15 -28 -11 -13 3 -17 3 -10 0 17 -8 15 -24 -4 -24 -21 0 -42 -22 -36
-39 3 -10 -2 -13 -22 -9 -22 4 -26 2 -21 -12 3 -10 0 -22 -6 -26 -8 -5 -9 -3
-4 5 5 9 0 12 -17 9 -14 -1 -33 4 -43 12 -17 14 -18 13 -12 -2 4 -12 2 -15 -9
-11 -11 4 -14 -5 -15 -38 -2 -44 -2 -44 -8 -9 -4 24 -12 35 -23 36 -10 1 -18
-5 -18 -13 0 -8 -5 -11 -11 -8 -6 4 -16 -1 -24 -11 -13 -18 -14 -18 -24 6
l-10 25 0 -24 c-1 -16 -6 -21 -15 -18 -9 4 -16 -3 -20 -17 -7 -27 -36 -31 -36
-5 0 10 -4 21 -10 24 -5 3 -10 1 -10 -5 0 -6 -5 -8 -12 -3 -7 4 -18 8 -25 8
-6 0 -23 10 -37 23 -33 28 -36 28 -30 -5 4 -25 3 -26 -7 -9 -9 15 -13 16 -20
5 -7 -12 -9 -12 -9 -1 0 8 -9 21 -20 30 -12 10 -22 27 -23 40 -2 31 -16 27
-28 -8 -12 -32 -29 -32 -29 1 0 11 -7 22 -15 25 -8 4 -12 11 -9 16 4 6 -2 5
-14 -1 -26 -14 -42 -14 -42 -1 0 5 6 7 13 4 8 -3 14 2 14 10 0 8 -5 14 -11 13
-5 -1 -11 7 -13 18 -2 11 -6 30 -9 43 l-5 23 -20 -23 c-19 -22 -20 -22 -10 -1
15 30 14 43 -4 37 -9 -4 -18 2 -24 17 -9 22 -10 22 -12 4 -1 -11 -1 -27 0 -35
2 -13 1 -13 -8 0 -6 8 -11 11 -12 5 0 -5 -5 -1 -10 10 -9 20 -9 20 -6 -1 3
-11 -2 -29 -9 -39 -10 -14 -14 -15 -14 -4 -1 8 -8 1 -16 -14 -20 -37 -26 -30
-14 14 14 46 13 47 -15 41 -21 -4 -25 0 -25 19 -1 21 -2 20 -15 -9 -8 -18 -21
-35 -30 -38 -23 -9 -65 4 -65 21 0 8 -5 15 -11 15 -7 0 -18 8 -25 18 -7 9 -14
12 -14 6 0 -16 55 -83 88 -108 39 -29 60 -47 84 -73 12 -13 25 -23 29 -23 4 0
29 -20 55 -45 25 -25 50 -45 55 -45 5 0 9 -7 9 -15 0 -8 4 -15 9 -15 7 0 63
-40 101 -72 15 -14 49 -35 65 -41 36 -15 89 -28 118 -31 19 -2 38 -6 44 -9 10
-7 179 -1 203 7 8 2 33 7 55 11 100 16 137 27 124 36 -10 6 -7 9 12 9 15 0 29
7 33 15 3 8 13 15 21 15 9 0 14 4 10 9 -3 6 2 14 12 20 10 5 58 48 106 95 49
47 93 86 98 86 18 0 110 94 147 150 59 89 65 107 78 233 4 31 4 57 0 57 -3 0
-6 -11 -6 -25z m-100 -245 c-20 -13 -33 -13 -25 0 3 6 14 10 23 10 15 0 15 -2
2 -10z m-21 -29 c8 -5 9 -11 3 -15 -5 -3 -15 1 -22 9 -14 16 -3 20 19 6z
m-1234 -101 c3 -5 1 -10 -4 -10 -6 0 -11 5 -11 10 0 6 2 10 4 10 3 0 8 -4 11
-10z m247 -122 c-7 -7 -12 -8 -12 -2 0 14 12 26 19 19 2 -3 -1 -11 -7 -17z
m78 -37 c-5 -10 -6 -21 -3 -25 3 -3 1 -6 -5 -6 -7 0 -12 5 -12 11 0 5 -4 7
-10 4 -5 -3 -10 1 -10 10 0 9 5 13 10 10 6 -3 13 1 16 9 3 9 10 13 15 10 5 -3
5 -13 -1 -23z m317 7 c-3 -8 -6 -5 -6 6 -1 11 2 17 5 13 3 -3 4 -12 1 -19z
m-284 -21 c3 -8 1 -20 -4 -28 -6 -10 -9 -7 -9 14 0 29 5 35 13 14z"/>
<path d="M1271 1392 c-14 -27 -12 -35 8 -23 7 5 11 17 9 27 -4 17 -5 17 -17
-4z"/>
<path d="M1393 1363 c4 -18 2 -33 -3 -33 -15 0 -3 -62 16 -79 15 -15 16 -14
11 7 -3 12 -1 20 3 17 16 -10 20 13 8 42 -6 15 -10 33 -9 39 0 6 -6 18 -16 25
-15 13 -16 11 -10 -18z"/>
<path d="M1760 1243 c0 -12 40 -45 56 -47 7 -1 17 -5 20 -9 4 -4 23 -7 42 -7
19 0 49 -9 67 -20 27 -17 38 -18 61 -9 16 6 57 10 92 10 49 -1 70 4 97 22 19
12 35 28 35 36 0 11 -4 9 -14 -4 -12 -17 -17 -18 -41 -7 -14 7 -24 9 -22 5 3
-5 -15 -8 -39 -8 -24 0 -44 3 -44 6 0 3 -35 5 -77 6 -86 1 -151 7 -159 16 -3
3 -12 3 -19 1 -7 -3 -23 -1 -34 6 -12 6 -21 7 -21 3z"/>
<path d="M1340 1215 c0 -10 -5 -15 -13 -12 -8 3 -20 1 -28 -4 -12 -8 -12 -10
1 -8 32 3 42 -1 36 -17 -4 -10 -1 -14 6 -11 7 2 12 12 10 22 -3 13 1 16 12 12
12 -5 16 0 15 16 0 12 -3 16 -6 9 -4 -10 -8 -10 -19 -1 -11 9 -14 8 -14 -6z"/>
<path d="M1210 624 c-14 -7 -43 -19 -64 -25 -46 -13 -291 -123 -390 -175 -38
-20 -83 -40 -100 -44 -33 -8 -166 -57 -330 -121 -54 -22 -102 -39 -107 -39 -4
0 -56 -18 -114 -41 l-105 -40 0 -70 0 -69 595 0 596 0 -20 37 c-41 79 -59 245
-42 376 14 107 30 145 77 186 40 36 42 47 4 25z"/>
<path d="M2798 514 c33 -25 28 -60 -27 -167 -60 -117 -119 -195 -213 -281
l-72 -66 707 0 c389 0 707 2 707 4 0 3 -26 12 -57 21 -251 72 -309 94 -366
144 -46 41 -65 50 -109 56 -76 11 -221 91 -334 184 -37 31 -71 51 -86 51 -14
0 -44 13 -69 29 -24 16 -57 32 -74 36 l-30 6 23 -17z"/>
</g>
</svg>
